<svg id="Layer_1" data-name="Layer 1" xmlns="http://www.w3.org/2000/svg" viewBox="0 0 517.74 258.87"><defs><style>.cls-1{fill:#455560;}.cls-2{fill:#ee3424;}.cls-3{fill:#fff;}</style></defs><title>epo-european-patent-organisation-logo</title><rect class="cls-1" x="258.87" width="258.87" height="258.87"/><rect class="cls-2" width="258.87" height="258.87"/><polyline class="cls-3" points="281.27 22.44 281.27 41.64 291.45 41.64 291.45 38.87 284.48 38.87 284.48 33.09 291.12 33.09 291.12 30.42 284.48 30.42 284.48 25.15 291.45 25.15 291.45 22.44 281.27 22.44"/><path class="cls-3" d="M305.21,27.46V34.3a5.73,5.73,0,0,1-1.45,4,3,3,0,0,1-2.15.93,1.89,1.89,0,0,1-1.4-.47,3,3,0,0,1-.61-2.22v-9.1h-3.14v9.9a4.76,4.76,0,0,0,1.15,3.49,4.16,4.16,0,0,0,3.09,1.07,5.22,5.22,0,0,0,4.79-2.76,19.71,19.71,0,0,0-.14,2.4v.08h3V27.46h-3.17"/><path class="cls-3" d="M321.55,27.18a4.29,4.29,0,0,0-4.57,3,17.72,17.72,0,0,0,.21-2.62v-.08h-3V41.64h3.18V35.87c0-2.53.49-4.24,1.48-5.06a3,3,0,0,1,2.58-.51l.08,0,.15-3.12h-.07"/><path class="cls-3" d="M335.82,28.85a6.32,6.32,0,0,0-4.66-1.67,6.78,6.78,0,0,0-4.92,2,7.76,7.76,0,0,0-2.14,5.6,7.55,7.55,0,0,0,1.83,5.52,6.35,6.35,0,0,0,4.69,1.67,6.77,6.77,0,0,0,5.09-2.19,8.09,8.09,0,0,0,2-5.46,7.37,7.37,0,0,0-1.85-5.43m-2.66,9.41a3.18,3.18,0,0,1-2.27.91,3.12,3.12,0,0,1-2.31-.86,5.34,5.34,0,0,1-1.2-3.88c0-3.37,1.91-4.56,3.54-4.56a3.19,3.19,0,0,1,2.33.85,5.21,5.21,0,0,1,1.14,3.76A5.3,5.3,0,0,1,333.16,38.26Z"/><path class="cls-3" d="M353.15,28.51a4.77,4.77,0,0,0-3.53-1.33,4.86,4.86,0,0,0-4.49,2.67c.11-.77.13-2.39.13-2.39h-3V48.52h3.15V41.68a11,11,0,0,0,2,.16,7.13,7.13,0,0,0,5.47-2.13,8.45,8.45,0,0,0,1.92-5.85c0-2.41-.57-4.22-1.71-5.35m-2.91,9.83a3.62,3.62,0,0,1-2.67,1,7.74,7.74,0,0,1-2.14-.25V34.8a6.63,6.63,0,0,1,.89-3.39,3,3,0,0,1,2.52-1.6,2.27,2.27,0,0,1,1.66.64c.69.69,1,1.92,1,3.69A5.84,5.84,0,0,1,350.24,38.34Z"/><path class="cls-3" d="M370.06,41.56c0-1.12-.08-2.55-.08-3.84V32a4.67,4.67,0,0,0-1.14-3.49c-.89-.89-2.34-1.32-4.42-1.32a14.07,14.07,0,0,0-5,.93l-.06,0,.3,2.74.11-.06a8.51,8.51,0,0,1,4.13-1.12,3.11,3.11,0,0,1,2.26.67,2.56,2.56,0,0,1,.6,1.91v.83c-3.17,0-5.67.78-7,2.15a4.07,4.07,0,0,0-1.24,3,3.56,3.56,0,0,0,1,2.58,4.19,4.19,0,0,0,3,1.08,5,5,0,0,0,4.57-2.61,22.06,22.06,0,0,0-.1,2.25v.08h3.06v-.08m-4.44-3.09a3,3,0,0,1-2.18.93,1.93,1.93,0,0,1-1.39-.5,1.58,1.58,0,0,1-.44-1.15c0-1.62,1.74-2.46,5.21-2.47v.21A4.25,4.25,0,0,1,365.62,38.47Z"/><path class="cls-3" d="M375.75,27.46h3.16V41.64h-3.16Zm1.6-1.94a2,2,0,0,1-1.45-.6,1.9,1.9,0,0,1,0-2.74,2,2,0,0,1,1.45-.6,2,2,0,0,1,1.43.59,1.93,1.93,0,0,1,.56,1.37A2,2,0,0,1,377.35,25.52Z"/><path class="cls-3" d="M389.44,33.29c-1.29-.45-2.42-.85-2.42-2s.86-1.68,2.42-1.68a10,10,0,0,1,2.71.4l.09,0,.07-2.62h0a18.06,18.06,0,0,0-2.63-.25,6.46,6.46,0,0,0-4.71,1.58,4,4,0,0,0-1.18,2.84c0,2.81,2,3.46,3.76,4,1.29.42,2.41.78,2.41,2a1.49,1.49,0,0,1-.44,1.07,3.2,3.2,0,0,1-2.25.72,11.51,11.51,0,0,1-3-.44l-.09,0-.1,2.73.08,0a16.24,16.24,0,0,0,3,.28c3.69,0,6.17-1.85,6.17-4.62s-2-3.39-3.79-4"/><path class="cls-3" d="M406.92,38.4l-.1,0a7,7,0,0,1-3,.67,3.41,3.41,0,0,1-2.52-.91,4.78,4.78,0,0,1-1.11-3.54,5.8,5.8,0,0,1,.94-3.49A3.39,3.39,0,0,1,404,29.9a8.2,8.2,0,0,1,2.8.53l.08,0,.33-2.78,0,0a10.88,10.88,0,0,0-3.08-.43,6.9,6.9,0,0,0-5.11,1.88,8.05,8.05,0,0,0-2.08,5.9,7.14,7.14,0,0,0,1.74,5.25,6.23,6.23,0,0,0,4.58,1.6,11.65,11.65,0,0,0,4-.71l0,0-.26-2.73"/><path class="cls-3" d="M422.45,28.25a4.18,4.18,0,0,0-3.09-1.07,5.12,5.12,0,0,0-4.69,2.65,14.66,14.66,0,0,0,.18-2.52V20.89H411.7V41.64h3.16V34.82c0-2.84,1.56-5,3.6-5a1.87,1.87,0,0,1,1.4.47,3.11,3.11,0,0,1,.61,2.21v9.12h3.13v-9.9a4.79,4.79,0,0,0-1.15-3.5"/><path class="cls-3" d="M438.87,28.7a5.66,5.66,0,0,0-4.17-1.52,6,6,0,0,0-4.4,1.72,8,8,0,0,0-2.08,5.75c0,2.48.61,4.35,1.83,5.56a6.84,6.84,0,0,0,5,1.71A13,13,0,0,0,440,41l0,0-.3-2.56-.1,0a9.52,9.52,0,0,1-4,.89,4.07,4.07,0,0,1-3-1,4.94,4.94,0,0,1-1.06-3.54h8.93v-.06a11.59,11.59,0,0,0,.09-1.41,6.38,6.38,0,0,0-1.64-4.62m-4.28.86a2.66,2.66,0,0,1,2,.76,3.05,3.05,0,0,1,.76,2.23h-5.79A3.1,3.1,0,0,1,434.59,29.56Z"/><path class="cls-3" d="M450,33.29c-1.3-.45-2.43-.85-2.43-2s.86-1.68,2.4-1.68a10,10,0,0,1,2.72.4l.1,0,.09-2.62h-.08a17.91,17.91,0,0,0-2.63-.25,6.5,6.5,0,0,0-4.71,1.58,3.94,3.94,0,0,0-1.14,2.84c0,2.81,2,3.46,3.74,4,1.29.42,2.41.78,2.41,2a1.49,1.49,0,0,1-.44,1.07,3.2,3.2,0,0,1-2.26.72,11.52,11.52,0,0,1-3-.44l-.09,0-.1,2.73.07,0a16.39,16.39,0,0,0,3,.28c3.68,0,6.18-1.85,6.18-4.62s-2-3.39-3.78-4"/><path class="cls-3" d="M291.81,54.94a7.64,7.64,0,0,0-5.57-1.86c-1.78,0-3.46.06-4.88.12h-.07V72.39h3.23v-7c.46,0,.94.05,1.32.05a8,8,0,0,0,5.42-1.87,6.18,6.18,0,0,0,2-4.67,5.33,5.33,0,0,0-1.5-3.94m-6,7.79a11,11,0,0,1-1.28-.1V55.79a13.09,13.09,0,0,1,1.5-.06,4.22,4.22,0,0,1,3.11,1,3.24,3.24,0,0,1,.87,2.39C290,61.3,288.33,62.7,285.8,62.73Z"/><path class="cls-3" d="M307.11,72.31c0-1.1-.07-2.54-.07-3.83V62.75a4.65,4.65,0,0,0-1.14-3.5c-.88-.89-2.34-1.33-4.4-1.33a14.1,14.1,0,0,0-5,.94l0,0,.28,2.74.1-.06A8.53,8.53,0,0,1,301,60.44a3,3,0,0,1,2.25.68,2.55,2.55,0,0,1,.6,1.91v.82c-3.16,0-5.66.77-7,2.15a4.14,4.14,0,0,0-1.23,3,3.52,3.52,0,0,0,1,2.58,4.12,4.12,0,0,0,3,1.08,5.07,5.07,0,0,0,4.57-2.61,19.15,19.15,0,0,0-.09,2.25v.08h3.06l0-.08m-4.43-3.08a3,3,0,0,1-2.17.92,1.92,1.92,0,0,1-1.41-.49,1.63,1.63,0,0,1-.45-1.15c0-1.62,1.77-2.45,5.22-2.47v.21A4.27,4.27,0,0,1,302.67,69.23Z"/><path class="cls-3" d="M316.25,58.21V52.92l-3.15.85v4.44h-2.68V60.7h2.68v7.58c0,1.75.3,2.82.94,3.47a4.09,4.09,0,0,0,3,.89,14.61,14.61,0,0,0,2.81-.31l.06,0V69.68l-.1,0a7.55,7.55,0,0,1-1.8.22,1.72,1.72,0,0,1-1.28-.36c-.36-.35-.49-1-.49-2.21V60.7h3.67V58.21h-3.69"/><path class="cls-3" d="M334.1,59.45a5.62,5.62,0,0,0-4.16-1.52,6.06,6.06,0,0,0-4.4,1.72,8,8,0,0,0-2.07,5.75c0,2.48.61,4.35,1.82,5.56a6.86,6.86,0,0,0,5,1.71,12.91,12.91,0,0,0,4.89-.91l0,0-.3-2.56-.09,0a9.65,9.65,0,0,1-4.08.9,4.07,4.07,0,0,1-3-1,4.79,4.79,0,0,1-1-3.52h8.94v-.08c0-.53.08-1,.08-1.42a6.36,6.36,0,0,0-1.65-4.62m-4.26.86a2.71,2.71,0,0,1,2,.76,3.1,3.1,0,0,1,.76,2.22h-5.8A3.11,3.11,0,0,1,329.83,60.31Z"/><path class="cls-3" d="M351.24,59a4.21,4.21,0,0,0-3.1-1.07,5.2,5.2,0,0,0-4.78,2.75,20.43,20.43,0,0,0,.14-2.4v-.08h-3V72.39h3.17V65.54a6,6,0,0,1,1-3.52,3.2,3.2,0,0,1,2.57-1.44,1.85,1.85,0,0,1,1.41.49,3,3,0,0,1,.61,2.21v9.1h3.13v-9.9A4.76,4.76,0,0,0,351.24,59"/><path class="cls-3" d="M361.62,58.21V52.92l-3.14.85v4.44h-2.69V60.7h2.69v7.58c0,1.75.29,2.82.95,3.47a4.11,4.11,0,0,0,3,.89,14.7,14.7,0,0,0,2.8-.31l.06,0V69.68l-.1,0a7.61,7.61,0,0,1-1.81.22,1.75,1.75,0,0,1-1.27-.36c-.36-.35-.49-1-.49-2.21V60.7h3.66V58.21h-3.7"/><path class="cls-3" d="M380.45,72.31c-.05-1.1-.09-2.54-.09-3.83V62.75a4.67,4.67,0,0,0-1.13-3.5c-.89-.89-2.33-1.33-4.41-1.33a14.14,14.14,0,0,0-5,.94l-.05,0,.29,2.74.11-.06a8.44,8.44,0,0,1,4.13-1.13,3.1,3.1,0,0,1,2.27.68,2.61,2.61,0,0,1,.6,1.91v.82c-3.16,0-5.66.77-7,2.15a4.07,4.07,0,0,0-1.25,3,3.56,3.56,0,0,0,1,2.58,4.16,4.16,0,0,0,3,1.08,5,5,0,0,0,4.57-2.61c-.05.59-.09,1.32-.09,2.25v.08h3.06v-.08M376,69.23a3,3,0,0,1-2.18.92,2,2,0,0,1-1.41-.49,1.61,1.61,0,0,1-.43-1.15c0-1.62,1.75-2.45,5.21-2.47v.21A4.29,4.29,0,0,1,376,69.23Z"/><path class="cls-3" d="M405.44,59a4.19,4.19,0,0,0-3.09-1.07,5.19,5.19,0,0,0-4.66,2.86,3.62,3.62,0,0,0-3.91-2.86,5.14,5.14,0,0,0-4.7,2.83c.12-.77.17-2.55.17-2.55h-3V72.39h3.16V65.61a6,6,0,0,1,1.07-3.6,3.06,3.06,0,0,1,2.44-1.42,1.84,1.84,0,0,1,1.36.48,3.07,3.07,0,0,1,.61,2.28v9H398V65.61c0-3.11,1.83-5,3.54-5a1.83,1.83,0,0,1,1.34.47,3.22,3.22,0,0,1,.62,2.32v9h3.14V62.64A5,5,0,0,0,405.44,59"/><path class="cls-3" d="M415.91,58.21V52.92l-3.14.85v4.44h-2.69V60.7h2.69v7.58c0,1.75.28,2.82.93,3.47a4.13,4.13,0,0,0,3,.89,14.7,14.7,0,0,0,2.82-.31l.05,0V69.68l-.09,0a7.76,7.76,0,0,1-1.81.22,1.7,1.7,0,0,1-1.27-.36c-.35-.35-.5-1-.5-2.21V60.7h3.67V58.21h-3.69"/><polyline class="cls-3" points="281.27 102.16 281.27 121.36 291.48 121.36 291.48 118.58 284.51 118.58 284.51 112.8 291.14 112.8 291.14 110.16 284.51 110.16 284.51 104.88 291.48 104.88 291.48 102.16 281.27 102.16"/><path class="cls-3" d="M305.23,107.19V114a5.71,5.71,0,0,1-1.45,4,3,3,0,0,1-2.14.94,1.88,1.88,0,0,1-1.41-.48,3,3,0,0,1-.62-2.22v-9.1h-3.13v9.89a4.83,4.83,0,0,0,1.14,3.5,4.25,4.25,0,0,0,3.1,1.07,5.19,5.19,0,0,0,4.79-2.75,19.43,19.43,0,0,0-.15,2.39v.07h3V107.19h-3.17"/><path class="cls-3" d="M321.57,106.91a4.26,4.26,0,0,0-4.56,3,21.23,21.23,0,0,0,.19-2.62v-.07h-3v14.17h3.17v-5.77c0-2.54.49-4.23,1.48-5.05a3,3,0,0,1,2.58-.52l.08,0,.16-3.12h-.06"/><path class="cls-3" d="M335.85,108.58a6.33,6.33,0,0,0-4.65-1.67,6.87,6.87,0,0,0-5,1.95,7.83,7.83,0,0,0-2.13,5.6,7.6,7.6,0,0,0,1.83,5.53,6.37,6.37,0,0,0,4.67,1.66,6.79,6.79,0,0,0,5.11-2.18,8,8,0,0,0,1.95-5.45,7.39,7.39,0,0,0-1.83-5.43M333.17,118a3.39,3.39,0,0,1-4.57,0,5.31,5.31,0,0,1-1.18-3.89c0-3.35,1.9-4.55,3.53-4.55a3.19,3.19,0,0,1,2.33.86,5.17,5.17,0,0,1,1.15,3.76A5.24,5.24,0,0,1,333.17,118Z"/><path class="cls-3" d="M353.15,108.23a4.75,4.75,0,0,0-3.52-1.33,4.86,4.86,0,0,0-4.49,2.68c.12-.77.13-2.39.13-2.39h-3v21.06h3.17V121.4a10.46,10.46,0,0,0,2,.15,7.21,7.21,0,0,0,5.47-2.11,8.54,8.54,0,0,0,1.9-5.86c0-2.41-.57-4.22-1.71-5.35m-2.91,9.83a3.57,3.57,0,0,1-2.67,1,7.46,7.46,0,0,1-2.12-.26v-4.26a6.86,6.86,0,0,1,.87-3.39,3,3,0,0,1,2.53-1.58,2.21,2.21,0,0,1,1.66.64,5.17,5.17,0,0,1,1,3.69A5.75,5.75,0,0,1,350.24,118.06Z"/><path class="cls-3" d="M369,108.43a5.6,5.6,0,0,0-4.16-1.52,6.1,6.1,0,0,0-4.4,1.71,8,8,0,0,0-2.06,5.76c0,2.48.61,4.35,1.8,5.55a6.85,6.85,0,0,0,5,1.72,13,13,0,0,0,4.88-.91l0,0-.31-2.57-.08,0a9.42,9.42,0,0,1-4.07.89,4.06,4.06,0,0,1-3-1,4.8,4.8,0,0,1-1.05-3.53h8.93l0-.07a13,13,0,0,0,.08-1.41,6.35,6.35,0,0,0-1.65-4.62m-4.26.86a2.73,2.73,0,0,1,2,.75,3.14,3.14,0,0,1,.76,2.23h-5.8A3.11,3.11,0,0,1,364.76,109.28Z"/><path class="cls-3" d="M386,121.28c-.06-1.11-.08-2.55-.08-3.83v-5.72a4.73,4.73,0,0,0-1.14-3.5c-.89-.88-2.34-1.32-4.41-1.32a14.09,14.09,0,0,0-5,.93l0,0,.29,2.74.1-.06a8.59,8.59,0,0,1,4.14-1.11,3.11,3.11,0,0,1,2.26.66,2.56,2.56,0,0,1,.6,1.91v.83c-3.17,0-5.66.77-7,2.15a4.15,4.15,0,0,0-1.23,3,3.58,3.58,0,0,0,1,2.58,4.16,4.16,0,0,0,3,1.08A5,5,0,0,0,383,119c-.06.59-.09,1.33-.09,2.25v.07H386v-.08m-4.43-3.08a3,3,0,0,1-2.19.92,1.93,1.93,0,0,1-1.41-.5,1.59,1.59,0,0,1-.44-1.15c0-1.62,1.76-2.45,5.22-2.46v.19A4.29,4.29,0,0,1,381.56,118.2Z"/><path class="cls-3" d="M402.48,108a4.23,4.23,0,0,0-3.1-1.07,5.21,5.21,0,0,0-4.79,2.75,20.91,20.91,0,0,0,.16-2.4v-.07h-3v14.17h3.17v-6.85a6,6,0,0,1,1-3.51,3.17,3.17,0,0,1,2.56-1.43,1.92,1.92,0,0,1,1.42.47,3,3,0,0,1,.61,2.22v9.1h3.13v-9.9a4.81,4.81,0,0,0-1.14-3.49"/><path class="cls-3" d="M291.8,134.67a7.69,7.69,0,0,0-5.56-1.86c-1.8,0-3.47.06-4.89.11h-.07v19.21h3.23v-7a11.32,11.32,0,0,0,1.34.06,8,8,0,0,0,5.41-1.86,6.23,6.23,0,0,0,2.05-4.69,5.31,5.31,0,0,0-1.5-3.94m-6,7.79a9.76,9.76,0,0,1-1.29-.11v-6.83a13.78,13.78,0,0,1,1.5-.05,4.31,4.31,0,0,1,3.11,1,3.34,3.34,0,0,1,.85,2.4C290,141,288.31,142.43,285.79,142.46Z"/><path class="cls-3" d="M307.11,152.05c0-1.12-.07-2.55-.07-3.85v-5.72a4.67,4.67,0,0,0-1.14-3.51c-.88-.89-2.34-1.31-4.4-1.31a14,14,0,0,0-5,.93l0,0,.28,2.74.1-.07a8.7,8.7,0,0,1,4.15-1.11,3.1,3.1,0,0,1,2.25.67,2.55,2.55,0,0,1,.6,1.91v.83c-3.16,0-5.66.78-7,2.15a4.16,4.16,0,0,0-1.23,3,3.52,3.52,0,0,0,1,2.58,4.12,4.12,0,0,0,3,1.08,5.05,5.05,0,0,0,4.57-2.62,19.34,19.34,0,0,0-.09,2.26v.07h3.06l0-.07m-4.43-3.1a3,3,0,0,1-2.17.93,1.87,1.87,0,0,1-1.41-.5,1.61,1.61,0,0,1-.45-1.15c0-1.62,1.77-2.44,5.22-2.46V146A4.23,4.23,0,0,1,302.67,149Z"/><path class="cls-3" d="M316.29,137.95v-5.3l-3.15.85v4.45h-2.67v2.49h2.67V148c0,1.74.29,2.83,1,3.48a4.05,4.05,0,0,0,3,.88,14.33,14.33,0,0,0,2.8-.3l.05,0v-2.64l-.08,0a8,8,0,0,1-1.81.22,1.71,1.71,0,0,1-1.27-.37c-.35-.35-.5-1-.5-2.21v-6.64H320v-2.49h-3.68"/><path class="cls-3" d="M334.07,139.18a5.69,5.69,0,0,0-4.16-1.51,6,6,0,0,0-4.41,1.71,8,8,0,0,0-2.07,5.75c0,2.48.62,4.35,1.82,5.57a6.87,6.87,0,0,0,5,1.71,13.24,13.24,0,0,0,4.89-.91l0,0-.31-2.55-.09,0a9.59,9.59,0,0,1-4.06.9,4.09,4.09,0,0,1-3-1,4.83,4.83,0,0,1-1.05-3.54h8.94v-.07a12.7,12.7,0,0,0,.08-1.42,6.38,6.38,0,0,0-1.64-4.62m-4.28.87a2.68,2.68,0,0,1,2,.76,3.13,3.13,0,0,1,.75,2.23h-5.79C327,141.18,328.17,140,329.78,140Z"/><path class="cls-3" d="M351.22,138.73a4.2,4.2,0,0,0-3.1-1.06,5.16,5.16,0,0,0-4.77,2.75,22.61,22.61,0,0,0,.13-2.39v-.08h-3v14.18h3.17v-6.85a6,6,0,0,1,1-3.53,3.17,3.17,0,0,1,2.56-1.43,1.93,1.93,0,0,1,1.42.48,3,3,0,0,1,.6,2.21v9.11h3.14v-9.89a4.77,4.77,0,0,0-1.16-3.5"/><path class="cls-3" d="M361.66,137.95v-5.3l-3.13.85v4.45h-2.68v2.49h2.68V148c0,1.74.29,2.83.95,3.48a4.09,4.09,0,0,0,3,.88,14.61,14.61,0,0,0,2.8-.3l.05,0v-2.64l-.08,0a8.16,8.16,0,0,1-1.84.22,1.69,1.69,0,0,1-1.25-.37c-.35-.35-.49-1-.49-2.21v-6.64h3.66v-2.49h-3.7"/><path class="cls-3" d="M392.18,134.9a8.45,8.45,0,0,0-6.13-2.25,8.92,8.92,0,0,0-6.4,2.55,10.37,10.37,0,0,0-2.82,7.53c0,3.22.88,5.79,2.53,7.46a8.33,8.33,0,0,0,6.13,2.22,8.93,8.93,0,0,0,6.52-2.68,10.5,10.5,0,0,0,2.7-7.45c0-3.21-.86-5.71-2.53-7.38M389.38,148a5.18,5.18,0,0,1-3.67,1.53,4.92,4.92,0,0,1-3.61-1.37c-1.21-1.21-1.84-3.21-1.84-5.79a7.58,7.58,0,0,1,1.68-5.13,5,5,0,0,1,3.84-1.73,4.92,4.92,0,0,1,3.66,1.4c1.21,1.19,1.84,3.15,1.84,5.69A7.49,7.49,0,0,1,389.38,148Z"/><path class="cls-3" d="M418.73,131.43a10.21,10.21,0,0,0-2.31-.26,5.59,5.59,0,0,0-4.1,1.38,6,6,0,0,0-1.46,4.39v1h-2.52v2.49h2.52v11.68H414V140.44h3.51v-2.49H414v-1c0-2.16.79-3.12,2.55-3.12a6.61,6.61,0,0,1,1.9.27l.09,0,.22-2.64h0"/><path class="cls-3" d="M407.7,131.43a10,10,0,0,0-2.31-.26,5.59,5.59,0,0,0-4.11,1.38,6,6,0,0,0-1.44,4.39v1h-2.55v2.49h2.55v11.68H403V140.44h3.53v-2.49H403v-1c0-2.16.78-3.12,2.55-3.12a6.63,6.63,0,0,1,1.9.27l.07,0,.26-2.64h-.07"/><path class="cls-3" d="M423.2,136a2,2,0,0,0,1.43-3.35,2,2,0,0,0-2.88,0,1.91,1.91,0,0,0-.55,1.36,1.94,1.94,0,0,0,.55,1.37,2,2,0,0,0,1.46.59"/><rect class="cls-3" x="421.6" y="137.95" width="3.17" height="14.17"/><path class="cls-3" d="M439.43,148.87l-.09.07a7.08,7.08,0,0,1-3,.65,3.47,3.47,0,0,1-2.54-.9,4.88,4.88,0,0,1-1.1-3.53,5.83,5.83,0,0,1,1-3.51,3.39,3.39,0,0,1,2.84-1.28,8.1,8.1,0,0,1,2.79.53l.09,0,.33-2.79h-.06a10.6,10.6,0,0,0-3.07-.43,7,7,0,0,0-5.11,1.87,8.15,8.15,0,0,0-2.07,5.91,7.18,7.18,0,0,0,1.73,5.27,6.24,6.24,0,0,0,4.59,1.59,11.6,11.6,0,0,0,4-.71h.05l-.28-2.75"/><path class="cls-3" d="M453.58,139.18a5.63,5.63,0,0,0-4.15-1.51,6,6,0,0,0-4.41,1.71,8,8,0,0,0-2.07,5.75c0,2.48.61,4.35,1.81,5.57a6.9,6.9,0,0,0,5,1.71,13.06,13.06,0,0,0,4.87-.91l.06,0-.3-2.55-.09,0a9.6,9.6,0,0,1-4.06.9,4.09,4.09,0,0,1-3-1,4.81,4.81,0,0,1-1.05-3.54h8.94v-.07a12.76,12.76,0,0,0,.09-1.42,6.39,6.39,0,0,0-1.65-4.62m-4.27.87a2.67,2.67,0,0,1,2,.76,3.1,3.1,0,0,1,.76,2.23h-5.8C446.55,141.18,447.71,140,449.31,140Z"/><path class="cls-3" d="M395.6,188.68v6.85a5.73,5.73,0,0,1-1.44,4,3,3,0,0,1-2.15.93,1.9,1.9,0,0,1-1.41-.48,3.1,3.1,0,0,1-.61-2.21v-9.1h-3.14v9.9a4.75,4.75,0,0,0,1.17,3.49,4.19,4.19,0,0,0,3.1,1.07,5.19,5.19,0,0,0,4.77-2.75c-.08.75-.13,1.72-.13,2.41v.07h3V188.68H395.6"/><path class="cls-3" d="M411.93,188.39a4.33,4.33,0,0,0-4.58,3,18.55,18.55,0,0,0,.2-2.63v-.07h-3v14.17h3.16v-5.77c0-2.54.51-4.23,1.49-5a3,3,0,0,1,2.58-.52h.09l.13-3.11-.06,0"/><path class="cls-3" d="M426.2,190.06a6.29,6.29,0,0,0-4.64-1.68,6.78,6.78,0,0,0-4.94,2,7.8,7.8,0,0,0-2.14,5.61,7.55,7.55,0,0,0,1.84,5.52,6.33,6.33,0,0,0,4.68,1.67,6.79,6.79,0,0,0,5.09-2.19,8.1,8.1,0,0,0,1.94-5.46,7.36,7.36,0,0,0-1.83-5.42m-2.66,9.41a3.42,3.42,0,0,1-4.59,0,5.4,5.4,0,0,1-1.18-3.9c0-3.36,1.89-4.54,3.53-4.54a3.17,3.17,0,0,1,2.33.87,5.18,5.18,0,0,1,1.13,3.75A5.26,5.26,0,0,1,423.54,199.48Z"/><path class="cls-3" d="M443.52,189.71a4.77,4.77,0,0,0-3.51-1.33,4.84,4.84,0,0,0-4.48,2.68c.1-.77.12-2.39.12-2.39h-3v21.06h3.16v-6.85a10.3,10.3,0,0,0,2,.16,7.13,7.13,0,0,0,5.47-2.13,8.47,8.47,0,0,0,1.91-5.84c0-2.42-.57-4.23-1.71-5.37m-2.89,9.84a3.67,3.67,0,0,1-2.68,1,7.44,7.44,0,0,1-2.13-.27V196a6.72,6.72,0,0,1,.89-3.4,2.94,2.94,0,0,1,2.52-1.59,2.32,2.32,0,0,1,1.66.63,5.24,5.24,0,0,1,1,3.7A5.83,5.83,0,0,1,440.63,199.55Z"/><path class="cls-3" d="M475.33,189.91a5.71,5.71,0,0,0-4.16-1.52,6.16,6.16,0,0,0-4.42,1.72,8,8,0,0,0-2.07,5.75,7.69,7.69,0,0,0,1.82,5.57,6.87,6.87,0,0,0,5,1.71,13,13,0,0,0,4.88-.91l0,0-.3-2.56-.09,0a9.64,9.64,0,0,1-4.06.89,4.06,4.06,0,0,1-3-1,4.79,4.79,0,0,1-1-3.53h8.95V196c.05-.54.09-1,.09-1.42a6.41,6.41,0,0,0-1.65-4.63m-4.27.87a2.65,2.65,0,0,1,2,.75,3.09,3.09,0,0,1,.77,2.23H468A3.1,3.1,0,0,1,471.06,190.78Z"/><path class="cls-3" d="M492.85,189.46a4.28,4.28,0,0,0-3.12-1.07,5.19,5.19,0,0,0-4.77,2.77,22,22,0,0,0,.13-2.41v-.07h-3v14.17h3.16V196a6.05,6.05,0,0,1,1-3.52,3.14,3.14,0,0,1,2.57-1.44,1.87,1.87,0,0,1,1.41.48,3.15,3.15,0,0,1,.6,2.22v9.1H494V193a4.8,4.8,0,0,0-1.14-3.49"/><path class="cls-3" d="M295.49,185.62a8.48,8.48,0,0,0-6.13-2.27,9,9,0,0,0-6.4,2.56,10.34,10.34,0,0,0-2.81,7.54c0,3.22.87,5.8,2.53,7.45a8.27,8.27,0,0,0,6.12,2.22,9,9,0,0,0,6.53-2.66A10.47,10.47,0,0,0,298,193c0-3.22-.85-5.69-2.52-7.38m-2.8,13.1a5.15,5.15,0,0,1-3.66,1.52,4.88,4.88,0,0,1-3.61-1.37c-1.21-1.21-1.85-3.21-1.85-5.78a7.63,7.63,0,0,1,1.67-5.14,5.07,5.07,0,0,1,3.85-1.74,5,5,0,0,1,3.67,1.4c1.19,1.2,1.83,3.17,1.83,5.69A7.49,7.49,0,0,1,292.68,198.72Z"/><path class="cls-3" d="M322,182.15a10.41,10.41,0,0,0-2.31-.26,5.53,5.53,0,0,0-4.1,1.4,6,6,0,0,0-1.45,4.39v1h-2.53v2.49h2.53v11.68h3.15V191.16h3.53v-2.49h-3.53v-1c0-2.16.77-3.12,2.55-3.12a6.55,6.55,0,0,1,1.9.27l.09,0,.22-2.65H322"/><path class="cls-3" d="M311,182.15a10.12,10.12,0,0,0-2.29-.26,5.57,5.57,0,0,0-4.11,1.4,6,6,0,0,0-1.45,4.39v1h-2.53v2.49h2.53v11.68h3.15V191.16h3.53v-2.49H306.3v-1c0-2.16.78-3.12,2.56-3.12a6.45,6.45,0,0,1,1.88.27l.08,0,.25-2.65H311"/><path class="cls-3" d="M326.49,186.73a2,2,0,0,0,2-2,2,2,0,0,0-2-2,2,2,0,0,0-1.44.6,1.93,1.93,0,0,0,0,2.75,2,2,0,0,0,1.44.59"/><rect class="cls-3" x="324.91" y="188.67" width="3.16" height="14.17"/><path class="cls-3" d="M342.75,199.59l-.1.07a7,7,0,0,1-3,.67,3.5,3.5,0,0,1-2.55-.9,4.89,4.89,0,0,1-1.11-3.55,5.68,5.68,0,0,1,1-3.49,3.37,3.37,0,0,1,2.83-1.29,8.31,8.31,0,0,1,2.8.54l.08,0,.34-2.78-.06,0a10.78,10.78,0,0,0-3.08-.43,6.91,6.91,0,0,0-5.1,1.88,8.1,8.1,0,0,0-2.08,5.91,7.23,7.23,0,0,0,1.72,5.25,6.3,6.3,0,0,0,4.59,1.58,11.29,11.29,0,0,0,4-.71H343l-.27-2.75"/><path class="cls-3" d="M356.9,189.9a5.74,5.74,0,0,0-4.17-1.52,6,6,0,0,0-4.4,1.72,8,8,0,0,0-2.08,5.75c0,2.47.61,4.35,1.82,5.56a6.86,6.86,0,0,0,5,1.71,13.05,13.05,0,0,0,4.89-.9l.05,0-.3-2.55-.1,0a9.44,9.44,0,0,1-4,.89,4,4,0,0,1-3-1A4.81,4.81,0,0,1,349.5,196h8.94v-.06a13.33,13.33,0,0,0,.09-1.42,6.42,6.42,0,0,0-1.64-4.63m-4.28.86a2.69,2.69,0,0,1,2,.76,3,3,0,0,1,.77,2.23h-5.79C349.85,191.9,351,190.76,352.61,190.76Z"/><path class="cls-3" d="M380.36,189.9a5.69,5.69,0,0,0-4.16-1.52,6.07,6.07,0,0,0-4.41,1.72,8,8,0,0,0-2.06,5.75c0,2.47.62,4.35,1.82,5.56a6.83,6.83,0,0,0,5,1.71,13,13,0,0,0,4.88-.9l0,0-.3-2.55-.08,0a9.57,9.57,0,0,1-4.07.89,4.06,4.06,0,0,1-3-1,4.78,4.78,0,0,1-1-3.53h8.94v-.06a12,12,0,0,0,.08-1.42,6.33,6.33,0,0,0-1.65-4.63m-4.26.86a2.71,2.71,0,0,1,2,.76,3.06,3.06,0,0,1,.77,2.23H373C373.32,191.9,374.49,190.76,376.1,190.76Z"/><path class="cls-3" d="M459.42,189.91a5.67,5.67,0,0,0-4.15-1.52,6.13,6.13,0,0,0-4.43,1.72,8,8,0,0,0-2.07,5.75c0,2.48.62,4.35,1.84,5.57a6.8,6.8,0,0,0,5,1.71,13,13,0,0,0,4.89-.91l0,0-.3-2.56-.09,0a9.64,9.64,0,0,1-4.07.89,4,4,0,0,1-3-1,4.81,4.81,0,0,1-1-3.53H461V196a11.91,11.91,0,0,0,.1-1.42,6.41,6.41,0,0,0-1.66-4.63m-4.28.87a2.69,2.69,0,0,1,2,.75,3.2,3.2,0,0,1,.75,2.23h-5.8A3.1,3.1,0,0,1,455.14,190.78Z"/><polyline class="cls-3" points="454.3 186.82 459.09 183.97 457.66 181.79 453.11 184.98 454.3 186.82"/><path class="cls-3" d="M289.56,212.84v6.45h-.14c-.66,0-1.28-.09-1.89-.09a7.23,7.23,0,0,0-5.24,2,8.3,8.3,0,0,0-2.17,6c0,2.37.59,4.22,1.72,5.35a4.8,4.8,0,0,0,3.51,1.33,4.94,4.94,0,0,0,4.51-2.67,17.36,17.36,0,0,0-.15,2.31v.07h3V212.84h-3.15m-1.46,17.57a2.62,2.62,0,0,1-1.92.83,2.32,2.32,0,0,1-1.69-.63,5.27,5.27,0,0,1-1-3.69,6.19,6.19,0,0,1,1.1-4,3.59,3.59,0,0,1,2.86-1.17,10.94,10.94,0,0,1,2.15.23v4.29A6,6,0,0,1,288.1,230.41Z"/><path class="cls-3" d="M308,220.64a5.64,5.64,0,0,0-4.15-1.51,6.05,6.05,0,0,0-4.41,1.73,8,8,0,0,0-2.07,5.74c0,2.48.61,4.37,1.82,5.57a6.91,6.91,0,0,0,5,1.71A12.87,12.87,0,0,0,309,233l.06,0-.3-2.55-.1,0a9.54,9.54,0,0,1-4.06.9,4,4,0,0,1-3-1,4.78,4.78,0,0,1-1-3.55h8.93v-.06c0-.53.08-1,.08-1.42a6.35,6.35,0,0,0-1.65-4.63m-4.26.87a2.67,2.67,0,0,1,2,.77,3,3,0,0,1,.76,2.22h-5.78C300.93,222.65,302.08,221.51,303.69,221.51Z"/><path class="cls-3" d="M373.33,220.64a5.66,5.66,0,0,0-4.14-1.51,6.06,6.06,0,0,0-4.42,1.73,8,8,0,0,0-2.06,5.74c0,2.48.61,4.37,1.81,5.57a6.91,6.91,0,0,0,5,1.71,13,13,0,0,0,4.88-.91l.05,0-.3-2.55-.09,0a9.6,9.6,0,0,1-4.06.9,4.1,4.1,0,0,1-3-1,4.84,4.84,0,0,1-1-3.55h8.93v-.06a11.51,11.51,0,0,0,.1-1.42,6.37,6.37,0,0,0-1.66-4.63m-4.27.87a2.66,2.66,0,0,1,2,.77,3,3,0,0,1,.77,2.22H366A3.1,3.1,0,0,1,369.07,221.51Z"/><path class="cls-3" d="M403.94,220.64a5.7,5.7,0,0,0-4.16-1.51,6,6,0,0,0-4.41,1.73,8,8,0,0,0-2.06,5.74c0,2.48.6,4.37,1.82,5.57a6.82,6.82,0,0,0,5,1.71A12.92,12.92,0,0,0,405,233l.05,0-.3-2.55-.09,0a9.53,9.53,0,0,1-4,.9,4.1,4.1,0,0,1-3-1,4.77,4.77,0,0,1-1-3.55h8.93v-.06a10.84,10.84,0,0,0,.09-1.42,6.39,6.39,0,0,0-1.64-4.63m-4.27.87a2.63,2.63,0,0,1,2,.77,3,3,0,0,1,.78,2.22h-5.8A3.11,3.11,0,0,1,399.67,221.51Z"/><path class="cls-3" d="M319.13,225.24c-1.3-.45-2.42-.84-2.42-2s.86-1.67,2.41-1.67a10.31,10.31,0,0,1,2.71.39l.09,0,.09-2.62-.06,0a17.32,17.32,0,0,0-2.64-.25,6.59,6.59,0,0,0-4.72,1.58,4,4,0,0,0-1.14,2.84c0,2.81,2,3.46,3.74,4,1.29.42,2.41.78,2.41,2a1.45,1.45,0,0,1-.45,1.07,3.19,3.19,0,0,1-2.25.72,10.85,10.85,0,0,1-3-.46l-.08,0-.1,2.72.07,0a15.79,15.79,0,0,0,3,.29c3.7,0,6.18-1.86,6.18-4.63s-2-3.39-3.78-4"/><path class="cls-3" d="M427.11,225.24c-1.31-.45-2.43-.84-2.43-2s.85-1.67,2.41-1.67a10.24,10.24,0,0,1,2.71.39l.09,0,.09-2.62-.06,0a17.21,17.21,0,0,0-2.65-.25,6.55,6.55,0,0,0-4.7,1.58,4,4,0,0,0-1.15,2.84c0,2.81,2,3.46,3.74,4,1.29.42,2.41.78,2.41,2a1.44,1.44,0,0,1-.45,1.07,3.17,3.17,0,0,1-2.24.72,10.8,10.8,0,0,1-3-.46l-.08,0-.09,2.72.06,0a15.85,15.85,0,0,0,3,.29c3.69,0,6.18-1.86,6.18-4.63s-2-3.39-3.78-4"/><path class="cls-3" d="M346.21,220.45a5.14,5.14,0,0,0-7.88,1.24,16.39,16.39,0,0,0,.17-2.31v-6.54h-3.17v20.37l0,0a19.06,19.06,0,0,0,5,.59c4.66,0,7.52-3.07,7.52-8,0-2.4-.56-4.21-1.71-5.35m-2.91,9.84a3.63,3.63,0,0,1-2.68,1,7.14,7.14,0,0,1-2.12-.26V226.7a6.52,6.52,0,0,1,.88-3.34,3,3,0,0,1,2.51-1.58,2.28,2.28,0,0,1,1.67.64c.68.68,1,1.91,1,3.68A5.77,5.77,0,0,1,343.31,230.3Z"/><path class="cls-3" d="M360,219.13a4.26,4.26,0,0,0-4.54,3,22.24,22.24,0,0,0,.19-2.62v-.07h-3v14.18h3.17v-5.78c0-2.53.5-4.24,1.48-5.06a3,3,0,0,1,2.58-.52l.08,0,.14-3.11H360"/><path class="cls-3" d="M387.83,219.41l-2.7,7.58c-.32.91-.58,1.87-.76,2.55-.23-.85-.53-1.78-.85-2.66l-2.64-7.48h-3.48l5.31,14.18h3.17l5.35-14.18h-3.39"/><path class="cls-3" d="M414.05,219.41v-5.3l-3.15.86v4.45h-2.68v2.49h2.68v7.57c0,1.75.29,2.82,1,3.48a4,4,0,0,0,3,.89,14.84,14.84,0,0,0,2.81-.32h.06v-2.64l-.1,0a7.53,7.53,0,0,1-1.81.22,1.66,1.66,0,0,1-1.27-.37c-.36-.35-.49-1-.49-2.21v-6.64h3.67v-2.49h-3.69"/><path class="cls-3" d="M118.12,143.11c4.1-10.93,5-20.83,2.24-25.88a6.11,6.11,0,0,0-4.07-3.3c-6.64-1.52-16,8.16-21.23,22-4,10.55-4.91,19.84-2.41,24.88a6.62,6.62,0,0,0,4.11,3.66c6.63,2,16.2-7.63,21.35-21.38m14.49,3.37c-4.73,12.69-13.54,23.79-23.2,29.7-6.77,4.15-13.8,5.48-19.79,3.76A18.34,18.34,0,0,1,77.8,170c-4.41-9-3.37-22.92,2.6-38.13C89.2,109.4,107.5,94.58,122,98.13a18,18,0,0,1,11.76,9.49C138.75,117,138.32,131.13,132.6,146.47Z"/><path class="cls-3" d="M122.42,69.71c1.59-2.38,3.64-3.87,7.56-3.65s9.57,4.06,10.93,5.08c2.82,2.1,10.71,8.13,16.58,21.93,7.44,17.46,11.3,43.66-5.7,74.49-11.6,21-27.5,33.49-42.11,38.44a66.63,66.63,0,0,1-30.49,2.74A49.08,49.08,0,0,1,65.76,205a32.52,32.52,0,0,1-7.31-4.38c-5.37-4.51-5.47-8.73-3.75-12a7.61,7.61,0,0,1,8-4.2,11.55,11.55,0,0,1,5,2,34.45,34.45,0,0,0,6.74,3.71c7.5,2.77,16.67,4.09,28.84.34s25.34-15.17,34.26-31.65a79.64,79.64,0,0,0,9-29.54c2-17.89-3.73-30.83-9.23-38.18-4.8-6.39-10.78-8.87-12.72-10.43-5-4-3.48-9.07-2.25-10.93"/><path class="cls-3" d="M56.61,216.52a44.3,44.3,0,0,0,9.66,3.9c6.58,1.79,15.56,2.65,25.47,1.95,21.93-1.57,49.82-14.08,68.37-48.31,18.82-34.7,16.13-68.44,3.22-94.43-6.39-12.88-16.82-22-26.2-27.43a60.56,60.56,0,0,0-13.3-5.66C119.1,45,116.72,41.19,118.4,36c1.09-3.35,4.11-5.55,8.51-5.47a28.36,28.36,0,0,1,8.32,1.93,72.8,72.8,0,0,1,12.25,6.15C161,46.75,173.3,60.14,181.24,77.84c12.78,28.49,14.4,66.52-5.81,103.33-36.53,66.49-99.26,64.11-122.8,52.63-4.69-2.39-7.89-4.59-9.71-6.67-3.64-4.16-2.46-7.69-1.08-10.06a7.27,7.27,0,0,1,5.71-3.66,9.67,9.67,0,0,1,3.48.33,12.52,12.52,0,0,1,3,1.33c.41.25,1.31.75,2.6,1.46"/><path class="cls-3" d="M180.85,190.92a11.61,11.61,0,0,1,.85-2.46,23.88,23.88,0,0,1,1.16-2.26c1.07-1.86,2.16-3.88,2.88-5.33,8.35-16.5,17.93-44.65,14.49-73.35-3.62-30.26-14.31-53.8-33.3-69.69a83.06,83.06,0,0,0-7.16-5.36,16.4,16.4,0,0,1-3.33-2.72,7.79,7.79,0,0,1-.79-9.67c3.21-5.4,8.75-4.91,16,.21a97.75,97.75,0,0,1,19.19,18.11c10.75,13.14,22.42,34.12,26,66.49a139.61,139.61,0,0,1-3.77,49.57,163.48,163.48,0,0,1-12,33.26c-1.19,2.39-2.47,4.52-3.56,6.31a15,15,0,0,1-4.4,4.91,8.93,8.93,0,0,1-9.39-.18c-2-1.27-3.88-3.56-2.95-7.83"/></svg>